<svg width="38" height="40" viewBox="0 0 38 40" fill="none" xmlns="http://www.w3.org/2000/svg">
<g id="smiling-emoticon-square-face">
<path id="Shape" fill-rule="evenodd" clip-rule="evenodd" d="M32.4483 6.88989C25.4263 -0.231201 14.001 -0.231201 6.98004 6.88794C-0.0419312 14.0071 -0.0414429 25.5911 6.98102 32.7122C14.001 39.8313 25.4263 39.8313 32.4478 32.7102C39.4693 25.5911 39.4688 14.0071 32.4483 6.88989ZM30.4835 30.718C24.5455 36.7395 14.8829 36.7395 8.9444 30.72C3.00494 24.6965 3.00592 14.8997 8.9444 8.87817C14.8829 2.85669 24.545 2.85669 30.4844 8.87817C36.4224 14.8997 36.4214 24.6985 30.4835 30.718ZM15.1016 12.7219C13.939 12.7219 12.9966 13.677 12.9966 14.8567C12.9966 16.0344 13.939 16.9915 15.1016 16.9915C16.2632 16.9915 17.2061 16.0344 17.2061 14.8567C17.2061 13.677 16.2632 12.7219 15.1016 12.7219ZM22.5411 14.8567C22.5411 13.677 23.4844 12.7219 24.6465 12.7219C25.8087 12.7219 26.751 13.677 26.751 14.8567C26.751 16.0344 25.8087 16.9915 24.6465 16.9915C23.4844 16.9915 22.5411 16.0344 22.5411 14.8567ZM19.7349 28.6321C23.1578 28.6321 26.2125 26.6555 27.5172 23.5969C27.7403 23.0735 27.5025 22.4661 26.9864 22.2395C26.4703 22.0129 25.8712 22.2551 25.6475 22.7786C24.6661 25.0813 22.3448 26.5676 19.7349 26.5676C17.064 26.5676 14.7296 25.0813 13.7867 22.7805C13.6241 22.3821 13.2452 22.1438 12.8463 22.1438C12.7159 22.1438 12.5836 22.1692 12.4556 22.2219C11.9361 22.4407 11.69 23.0461 11.9058 23.5715C13.1651 26.6458 16.2383 28.6321 19.7349 28.6321Z" fill="#BBC3CF"/>
</g>
</svg>
